<svg width="28" height="28" viewBox="0 0 36 36" fill="none" xmlns="http://www.w3.org/2000/svg">
<g id="calendar_month">
<mask id="mask0_871_1158" style="mask-type:alpha" maskUnits="userSpaceOnUse" x="0" y="0" width="36" height="36">
<rect id="Bounding box" width="36" height="36" fill="#514D59"/>
</mask>
<g mask="url(#mask0_871_1158)">
<path id="calendar_month_2" d="M7.5 33C6.675 33 5.96875 32.7063 5.38125 32.1188C4.79375 31.5313 4.5 30.825 4.5 30V9C4.5 8.175 4.79375 7.46875 5.38125 6.88125C5.96875 6.29375 6.675 6 7.5 6H9V3H12V6H24V3H27V6H28.5C29.325 6 30.0313 6.29375 30.6188 6.88125C31.2063 7.46875 31.5 8.175 31.5 9V30C31.5 30.825 31.2063 31.5313 30.6188 32.1188C30.0313 32.7063 29.325 33 28.5 33H7.5ZM7.5 30H28.5V15H7.5V30ZM7.5 12H28.5V9H7.5V12ZM18 21C17.575 21 17.2188 20.8563 16.9313 20.5688C16.6438 20.2813 16.5 19.925 16.5 19.5C16.5 19.075 16.6438 18.7188 16.9313 18.4313C17.2188 18.1438 17.575 18 18 18C18.425 18 18.7813 18.1438 19.0688 18.4313C19.3563 18.7188 19.5 19.075 19.5 19.5C19.5 19.925 19.3563 20.2813 19.0688 20.5688C18.7813 20.8563 18.425 21 18 21ZM12 21C11.575 21 11.2187 20.8563 10.9312 20.5688C10.6437 20.2813 10.5 19.925 10.5 19.5C10.5 19.075 10.6437 18.7188 10.9312 18.4313C11.2187 18.1438 11.575 18 12 18C12.425 18 12.7813 18.1438 13.0688 18.4313C13.3563 18.7188 13.5 19.075 13.5 19.5C13.5 19.925 13.3563 20.2813 13.0688 20.5688C12.7813 20.8563 12.425 21 12 21ZM24 21C23.575 21 23.2188 20.8563 22.9313 20.5688C22.6438 20.2813 22.5 19.925 22.5 19.5C22.5 19.075 22.6438 18.7188 22.9313 18.4313C23.2188 18.1438 23.575 18 24 18C24.425 18 24.7813 18.1438 25.0688 18.4313C25.3563 18.7188 25.5 19.075 25.5 19.5C25.5 19.925 25.3563 20.2813 25.0688 20.5688C24.7813 20.8563 24.425 21 24 21ZM18 27C17.575 27 17.2188 26.8563 16.9313 26.5688C16.6438 26.2813 16.5 25.925 16.5 25.5C16.5 25.075 16.6438 24.7188 16.9313 24.4313C17.2188 24.1438 17.575 24 18 24C18.425 24 18.7813 24.1438 19.0688 24.4313C19.3563 24.7188 19.5 25.075 19.5 25.5C19.5 25.925 19.3563 26.2813 19.0688 26.5688C18.7813 26.8563 18.425 27 18 27ZM12 27C11.575 27 11.2187 26.8563 10.9312 26.5688C10.6437 26.2813 10.5 25.925 10.5 25.5C10.5 25.075 10.6437 24.7188 10.9312 24.4313C11.2187 24.1438 11.575 24 12 24C12.425 24 12.7813 24.1438 13.0688 24.4313C13.3563 24.7188 13.5 25.075 13.5 25.5C13.5 25.925 13.3563 26.2813 13.0688 26.5688C12.7813 26.8563 12.425 27 12 27ZM24 27C23.575 27 23.2188 26.8563 22.9313 26.5688C22.6438 26.2813 22.5 25.925 22.5 25.5C22.5 25.075 22.6438 24.7188 22.9313 24.4313C23.2188 24.1438 23.575 24 24 24C24.425 24 24.7813 24.1438 25.0688 24.4313C25.3563 24.7188 25.5 25.075 25.5 25.5C25.5 25.925 25.3563 26.2813 25.0688 26.5688C24.7813 26.8563 24.425 27 24 27Z" fill="#514D59"/>
</g>
</g>
</svg>
