<svg width="25" height="25" viewBox="0 0 36 36" fill="none" xmlns="http://www.w3.org/2000/svg">
<g id="call">
<mask id="mask0_906_719" style="mask-type:alpha" maskUnits="userSpaceOnUse" x="0" y="0" width="36" height="36">
<rect id="Bounding box" width="36" height="36" fill="#643DAF"/>
</mask>
<g mask="url(#mask0_906_719)">
<path id="call_2" d="M29.925 31.5C26.8 31.5 23.7125 30.8188 20.6625 29.4563C17.6125 28.0938 14.8375 26.1625 12.3375 23.6625C9.8375 21.1625 7.90625 18.3875 6.54375 15.3375C5.18125 12.2875 4.5 9.2 4.5 6.075C4.5 5.625 4.65 5.25 4.95 4.95C5.25 4.65 5.625 4.5 6.075 4.5H12.15C12.5 4.5 12.8125 4.61875 13.0875 4.85625C13.3625 5.09375 13.525 5.375 13.575 5.7L14.55 10.95C14.6 11.35 14.5875 11.6875 14.5125 11.9625C14.4375 12.2375 14.3 12.475 14.1 12.675L10.4625 16.35C10.9625 17.275 11.5562 18.1687 12.2437 19.0312C12.9312 19.8938 13.6875 20.725 14.5125 21.525C15.2875 22.3 16.1 23.0188 16.95 23.6813C17.8 24.3438 18.7 24.95 19.65 25.5L23.175 21.975C23.4 21.75 23.6938 21.5812 24.0563 21.4688C24.4188 21.3563 24.775 21.325 25.125 21.375L30.3 22.425C30.65 22.525 30.9375 22.7062 31.1625 22.9688C31.3875 23.2313 31.5 23.525 31.5 23.85V29.925C31.5 30.375 31.35 30.75 31.05 31.05C30.75 31.35 30.375 31.5 29.925 31.5ZM9.0375 13.5L11.5125 11.025L10.875 7.5H7.5375C7.6625 8.525 7.8375 9.5375 8.0625 10.5375C8.2875 11.5375 8.6125 12.525 9.0375 13.5ZM22.4625 26.925C23.4375 27.35 24.4313 27.6875 25.4438 27.9375C26.4563 28.1875 27.475 28.35 28.5 28.425V25.125L24.975 24.4125L22.4625 26.925Z" fill="#643DAF"/>
</g>
</g>
</svg>
