<svg width="1440" height="743" viewBox="0 10 1440 743" fill="none" xmlns="http://www.w3.org/2000/svg">
<g id="&#236;&#131;&#129;&#235;&#139;&#168;&#234;&#180;&#145;&#234;&#179;&#160;&#236;&#157;&#180;&#235;&#175;&#184;&#236;&#167;&#128;" opacity="0.35" clip-path="url(#clip0_113_852)" filter="url(#filter0_f_113_852)">
<rect width="1440" height="735" transform="translate(0 4)" fill="url(#paint0_linear_113_852)"/>
<g id="Group 2608547">
<g id="Group 2608544" opacity="0.8">
<g id="menu_book">
<mask id="mask0_113_852" style="mask-type:alpha" maskUnits="userSpaceOnUse" x="1012" y="391" width="380" height="381">
<rect id="Bounding box" x="1012" y="451.109" width="325.532" height="325.532" transform="rotate(-10.4681 1012 451.109)" fill="#D9D9D9"/>
</mask>
<g mask="url(#mask0_113_852)">
<g id="menu_book_2">
<mask id="path-2-inside-1_113_852" fill="white">
<path d="M1226.71 568.01L1222.34 544.402C1229.08 539.806 1236.14 535.99 1243.51 532.953C1250.88 529.916 1258.78 527.617 1267.23 526.056C1273.01 524.988 1278.77 524.404 1284.49 524.302C1290.22 524.201 1295.88 524.352 1301.48 524.755L1305.58 546.974C1299.86 545.877 1294.18 545.311 1288.54 545.275C1282.9 545.24 1277.08 545.777 1271.08 546.886C1262.63 548.447 1254.72 551.045 1247.35 554.682C1239.97 558.318 1233.09 562.761 1226.71 568.01ZM1240.82 644.387L1236.46 620.779C1243.19 616.184 1250.25 612.367 1257.62 609.33C1264.99 606.293 1272.9 603.994 1281.34 602.433C1287.12 601.365 1292.88 600.781 1298.61 600.68C1304.34 600.579 1310 600.73 1315.59 601.133L1319.69 623.352C1313.97 622.254 1308.29 621.688 1302.65 621.653C1297.02 621.618 1291.19 622.154 1285.19 623.263C1276.75 624.824 1268.82 627.365 1261.43 630.885C1254.03 634.406 1247.16 638.906 1240.82 644.387ZM1233.76 606.198L1229.4 582.591C1236.14 577.995 1243.19 574.179 1250.56 571.141C1257.93 568.104 1265.84 565.805 1274.29 564.245C1280.07 563.177 1285.82 562.592 1291.55 562.491C1297.28 562.39 1302.94 562.541 1308.53 562.944L1312.64 585.163C1306.92 584.066 1301.24 583.499 1295.6 583.464C1289.96 583.429 1284.14 583.966 1278.14 585.075C1269.69 586.636 1261.78 589.234 1254.4 592.87C1247.03 596.507 1240.15 600.949 1233.76 606.198ZM1231.71 669.764C1240.6 663.097 1249.76 657.634 1259.2 653.376C1268.65 649.118 1278.59 646.024 1289.04 644.094C1297.04 642.615 1305.01 641.861 1312.93 641.833C1320.86 641.805 1328.97 642.461 1337.26 643.8L1311.86 506.321C1303.93 504.436 1295.87 503.413 1287.67 503.251C1279.48 503.089 1271.39 503.747 1263.38 505.226C1252.94 507.156 1242.85 510.455 1233.14 515.121C1223.43 519.788 1214.53 525.741 1206.44 532.98L1231.71 669.764ZM1225.94 713.195C1213.65 706.371 1200.83 701.679 1187.48 699.119C1174.13 696.559 1160.79 696.511 1147.45 698.975C1138.12 700.7 1129.18 703.668 1120.65 707.877C1112.12 712.086 1104.17 717.265 1096.8 723.414C1092.6 726.822 1088.07 727.538 1083.23 725.562C1078.38 723.586 1075.46 719.936 1074.48 714.612L1043.56 547.277C1043.09 544.731 1043.25 542.188 1044.05 539.647C1044.84 537.107 1046.36 535.032 1048.59 533.423C1058.05 526.169 1068.02 520.079 1078.49 515.153C1088.96 510.227 1099.97 506.696 1111.53 504.56C1124.43 502.178 1137.36 501.583 1150.34 502.775C1163.32 503.967 1176.12 506.988 1188.74 511.836C1198.8 502.798 1209.67 495.404 1221.37 489.652C1233.06 483.901 1245.36 479.834 1258.25 477.452C1269.81 475.316 1281.36 474.678 1292.9 475.538C1304.44 476.398 1315.92 478.525 1327.35 481.918C1330.01 482.623 1332.17 484.02 1333.82 486.109C1335.47 488.197 1336.53 490.514 1337 493.06L1367.92 660.396C1368.9 665.719 1367.48 670.17 1363.66 673.748C1359.84 677.327 1355.36 678.274 1350.22 676.591C1341.14 673.482 1331.86 671.486 1322.39 670.603C1312.91 669.721 1303.51 670.142 1294.17 671.867C1280.83 674.332 1268.39 679.144 1256.84 686.304C1245.29 693.465 1234.99 702.428 1225.94 713.195Z"/>
</mask>
<path d="M1226.71 568.01L1222.34 544.402C1229.08 539.806 1236.14 535.99 1243.51 532.953C1250.88 529.916 1258.78 527.617 1267.23 526.056C1273.01 524.988 1278.77 524.404 1284.49 524.302C1290.22 524.201 1295.88 524.352 1301.48 524.755L1305.58 546.974C1299.86 545.877 1294.18 545.311 1288.54 545.275C1282.9 545.24 1277.08 545.777 1271.08 546.886C1262.63 548.447 1254.72 551.045 1247.35 554.682C1239.97 558.318 1233.09 562.761 1226.71 568.01ZM1240.82 644.387L1236.46 620.779C1243.19 616.184 1250.25 612.367 1257.62 609.33C1264.99 606.293 1272.9 603.994 1281.34 602.433C1287.12 601.365 1292.88 600.781 1298.61 600.68C1304.34 600.579 1310 600.73 1315.59 601.133L1319.69 623.352C1313.97 622.254 1308.29 621.688 1302.65 621.653C1297.02 621.618 1291.19 622.154 1285.19 623.263C1276.75 624.824 1268.82 627.365 1261.43 630.885C1254.03 634.406 1247.16 638.906 1240.82 644.387ZM1233.76 606.198L1229.4 582.591C1236.14 577.995 1243.19 574.179 1250.56 571.141C1257.93 568.104 1265.84 565.805 1274.29 564.245C1280.07 563.177 1285.82 562.592 1291.55 562.491C1297.28 562.39 1302.94 562.541 1308.53 562.944L1312.64 585.163C1306.92 584.066 1301.24 583.499 1295.6 583.464C1289.96 583.429 1284.14 583.966 1278.14 585.075C1269.69 586.636 1261.78 589.234 1254.4 592.87C1247.03 596.507 1240.15 600.949 1233.76 606.198ZM1231.71 669.764C1240.6 663.097 1249.76 657.634 1259.2 653.376C1268.65 649.118 1278.59 646.024 1289.04 644.094C1297.04 642.615 1305.01 641.861 1312.93 641.833C1320.86 641.805 1328.97 642.461 1337.26 643.8L1311.86 506.321C1303.93 504.436 1295.87 503.413 1287.67 503.251C1279.48 503.089 1271.39 503.747 1263.38 505.226C1252.94 507.156 1242.85 510.455 1233.14 515.121C1223.43 519.788 1214.53 525.741 1206.44 532.98L1231.71 669.764ZM1225.94 713.195C1213.65 706.371 1200.83 701.679 1187.48 699.119C1174.13 696.559 1160.79 696.511 1147.45 698.975C1138.12 700.7 1129.18 703.668 1120.65 707.877C1112.12 712.086 1104.17 717.265 1096.8 723.414C1092.6 726.822 1088.07 727.538 1083.23 725.562C1078.38 723.586 1075.46 719.936 1074.48 714.612L1043.56 547.277C1043.09 544.731 1043.25 542.188 1044.05 539.647C1044.84 537.107 1046.36 535.032 1048.59 533.423C1058.05 526.169 1068.02 520.079 1078.49 515.153C1088.96 510.227 1099.97 506.696 1111.53 504.56C1124.43 502.178 1137.36 501.583 1150.34 502.775C1163.32 503.967 1176.12 506.988 1188.74 511.836C1198.8 502.798 1209.67 495.404 1221.37 489.652C1233.06 483.901 1245.36 479.834 1258.25 477.452C1269.81 475.316 1281.36 474.678 1292.9 475.538C1304.44 476.398 1315.92 478.525 1327.35 481.918C1330.01 482.623 1332.17 484.02 1333.82 486.109C1335.47 488.197 1336.53 490.514 1337 493.06L1367.92 660.396C1368.9 665.719 1367.48 670.17 1363.66 673.748C1359.84 677.327 1355.36 678.274 1350.22 676.591C1341.14 673.482 1331.86 671.486 1322.39 670.603C1312.91 669.721 1303.51 670.142 1294.17 671.867C1280.83 674.332 1268.39 679.144 1256.84 686.304C1245.29 693.465 1234.99 702.428 1225.94 713.195Z" fill="url(#paint1_linear_113_852)" stroke="url(#paint2_linear_113_852)" stroke-opacity="0.2" stroke-width="3.81991" mask="url(#path-2-inside-1_113_852)"/>
</g>
</g>
</g>
</g>
<g id="Group 2608526" filter="url(#filter1_d_113_852)">
<rect id="Body 2" x="1307.13" y="305.94" width="96.956" height="113.115" rx="30.5606" transform="rotate(32.2594 1307.13 305.94)" fill="url(#paint3_linear_113_852)"/>
<g id="Shape 1" filter="url(#filter2_b_113_852)">
<mask id="path-4-inside-2_113_852" fill="white">
<path d="M1272.63 360.6C1277.39 353.053 1287.37 350.797 1294.92 355.56L1349.58 390.061C1357.13 394.824 1359.38 404.804 1354.62 412.351L1281.77 527.765C1278.64 532.719 1274.23 536.729 1269 539.368L1243.35 552.315L1194.15 521.264L1194.8 492.534C1194.93 486.678 1196.65 480.968 1199.78 476.015L1272.63 360.6Z"/>
</mask>
<path d="M1272.63 360.6C1277.39 353.053 1287.37 350.797 1294.92 355.56L1349.58 390.061C1357.13 394.824 1359.38 404.804 1354.62 412.351L1281.77 527.765C1278.64 532.719 1274.23 536.729 1269 539.368L1243.35 552.315L1194.15 521.264L1194.8 492.534C1194.93 486.678 1196.65 480.968 1199.78 476.015L1272.63 360.6Z" fill="#D7C0FF" fill-opacity="0.6"/>
<path d="M1294.92 355.56L1293.83 357.291L1293.83 357.291L1294.92 355.56ZM1272.63 360.6L1270.9 359.508L1272.63 360.6ZM1349.58 390.061L1348.49 391.791L1349.58 390.061ZM1354.62 412.351L1356.35 413.443L1354.62 412.351ZM1281.77 527.765L1280.04 526.673L1281.77 527.765ZM1269 539.368L1269.92 541.196L1269 539.368ZM1243.35 552.315L1242.25 554.045L1243.23 554.664L1244.27 554.142L1243.35 552.315ZM1194.15 521.264L1192.11 521.218L1192.08 522.377L1193.06 522.995L1194.15 521.264ZM1194.8 492.534L1192.75 492.488L1192.75 492.488L1194.8 492.534ZM1199.78 476.015L1198.05 474.922L1198.05 474.922L1199.78 476.015ZM1296.01 353.829C1287.51 348.463 1276.27 351.005 1270.9 359.508L1274.36 361.693C1278.52 355.102 1287.24 353.131 1293.83 357.291L1296.01 353.829ZM1350.67 388.33L1296.01 353.829L1293.83 357.291L1348.49 391.791L1350.67 388.33ZM1356.35 413.443C1361.72 404.94 1359.17 393.697 1350.67 388.33L1348.49 391.791C1355.08 395.952 1357.05 404.667 1352.89 411.258L1356.35 413.443ZM1283.5 528.858L1356.35 413.443L1352.89 411.258L1280.04 526.673L1283.5 528.858ZM1269.92 541.196C1275.48 538.39 1280.18 534.125 1283.5 528.858L1280.04 526.673C1277.11 531.313 1272.98 535.069 1268.08 537.541L1269.92 541.196ZM1244.27 554.142L1269.92 541.196L1268.08 537.541L1242.42 550.487L1244.27 554.142ZM1244.44 550.584L1195.25 519.534L1193.06 522.995L1242.25 554.045L1244.44 550.584ZM1198.05 474.922C1194.73 480.189 1192.9 486.261 1192.75 492.488L1196.85 492.581C1196.97 487.095 1198.58 481.747 1201.51 477.107L1198.05 474.922ZM1270.9 359.508L1198.05 474.922L1201.51 477.107L1274.36 361.693L1270.9 359.508ZM1196.2 521.311L1196.85 492.58L1192.75 492.488L1192.11 521.218L1196.2 521.311Z" fill="url(#paint4_linear_113_852)" mask="url(#path-4-inside-2_113_852)"/>
</g>
<g id="Shape 2" filter="url(#filter3_b_113_852)">
<rect width="64.6373" height="16.1593" rx="8.07967" transform="matrix(-0.84564 -0.533754 -0.533754 0.84564 1340.95 403.725)" fill="url(#paint5_linear_113_852)" fill-opacity="0.9"/>
<rect x="-0.789875" y="0.178594" width="63.4921" height="15.0141" rx="7.50704" transform="matrix(-0.84564 -0.533754 -0.533754 0.84564 1339.59 403.331)" stroke="url(#paint6_linear_113_852)" stroke-width="1.14525"/>
</g>
<path id="Body 1" d="M1243.35 552.315L1194.15 521.264L1193.18 564.322C1193.04 570.42 1199.45 574.466 1204.9 571.718L1243.35 552.315Z" fill="url(#paint7_linear_113_852)"/>
</g>
</g>
</g>
<defs>
<filter id="filter0_f_113_852" x="-4" y="0" width="1448" height="743" filterUnits="userSpaceOnUse" color-interpolation-filters="sRGB">
<feFlood flood-opacity="0" result="BackgroundImageFix"/>
<feBlend mode="normal" in="SourceGraphic" in2="BackgroundImageFix" result="shape"/>
<feGaussianBlur stdDeviation="2" result="effect1_foregroundBlur_113_852"/>
</filter>
<filter id="filter1_d_113_852" x="1167.71" y="311.168" width="235.279" height="305.993" filterUnits="userSpaceOnUse" color-interpolation-filters="sRGB">
<feFlood flood-opacity="0" result="BackgroundImageFix"/>
<feColorMatrix in="SourceAlpha" type="matrix" values="0 0 0 0 0 0 0 0 0 0 0 0 0 0 0 0 0 0 127 0" result="hardAlpha"/>
<feOffset dy="19.0996"/>
<feGaussianBlur stdDeviation="12.733"/>
<feComposite in2="hardAlpha" operator="out"/>
<feColorMatrix type="matrix" values="0 0 0 0 0.267762 0 0 0 0 0.0601489 0 0 0 0 0.782282 0 0 0 0.3 0"/>
<feBlend mode="normal" in2="BackgroundImageFix" result="effect1_dropShadow_113_852"/>
<feBlend mode="normal" in="SourceGraphic" in2="effect1_dropShadow_113_852" result="shape"/>
</filter>
<filter id="filter2_b_113_852" x="1175.05" y="333.964" width="201.162" height="237.45" filterUnits="userSpaceOnUse" color-interpolation-filters="sRGB">
<feFlood flood-opacity="0" result="BackgroundImageFix"/>
<feGaussianBlur in="BackgroundImageFix" stdDeviation="9.54978"/>
<feComposite in2="SourceAlpha" operator="in" result="effect1_backgroundBlur_113_852"/>
<feBlend mode="normal" in="SourceGraphic" in2="effect1_backgroundBlur_113_852" result="shape"/>
</filter>
<filter id="filter3_b_113_852" x="1219.61" y="311.168" width="179.399" height="164.279" filterUnits="userSpaceOnUse" color-interpolation-filters="sRGB">
<feFlood flood-opacity="0" result="BackgroundImageFix"/>
<feGaussianBlur in="BackgroundImageFix" stdDeviation="30.5606"/>
<feComposite in2="SourceAlpha" operator="in" result="effect1_backgroundBlur_113_852"/>
<feBlend mode="normal" in="SourceGraphic" in2="effect1_backgroundBlur_113_852" result="shape"/>
</filter>
<linearGradient id="paint0_linear_113_852" x1="2222" y1="436.126" x2="1899.18" y2="-706.792" gradientUnits="userSpaceOnUse">
<stop stop-color="#7733F9"/>
<stop offset="1" stop-color="#E6D9FF"/>
</linearGradient>
<linearGradient id="paint1_linear_113_852" x1="1187.27" y1="503.899" x2="1228.22" y2="725.515" gradientUnits="userSpaceOnUse">
<stop stop-color="#8769FF"/>
<stop offset="1" stop-color="#BC67FF" stop-opacity="0"/>
</linearGradient>
<linearGradient id="paint2_linear_113_852" x1="1183.32" y1="482.504" x2="1225.94" y2="713.195" gradientUnits="userSpaceOnUse">
<stop stop-color="white"/>
<stop offset="1" stop-color="white" stop-opacity="0"/>
</linearGradient>
<linearGradient id="paint3_linear_113_852" x1="1335.1" y1="330.684" x2="1411.64" y2="353.246" gradientUnits="userSpaceOnUse">
<stop stop-color="#917FFB"/>
<stop offset="1" stop-color="#6400E3"/>
</linearGradient>
<linearGradient id="paint4_linear_113_852" x1="1150.83" y1="381.147" x2="1312.33" y2="531.549" gradientUnits="userSpaceOnUse">
<stop offset="0.1643" stop-color="white"/>
<stop offset="0.765625" stop-color="white" stop-opacity="0"/>
</linearGradient>
<linearGradient id="paint5_linear_113_852" x1="65.8716" y1="9.01035" x2="-27.4247" y2="6.63424" gradientUnits="userSpaceOnUse">
<stop stop-color="#FCFDFE"/>
<stop offset="1" stop-color="#FCFDFE" stop-opacity="0"/>
</linearGradient>
<linearGradient id="paint6_linear_113_852" x1="63.9289" y1="11.1136" x2="32.3187" y2="16.1593" gradientUnits="userSpaceOnUse">
<stop stop-color="white"/>
<stop offset="1" stop-color="white" stop-opacity="0"/>
</linearGradient>
<linearGradient id="paint7_linear_113_852" x1="1203.57" y1="537.778" x2="1227.1" y2="575.939" gradientUnits="userSpaceOnUse">
<stop stop-color="#917FFB"/>
<stop offset="1" stop-color="#6400E3"/>
</linearGradient>
<clipPath id="clip0_113_852">
<rect width="1440" height="735" fill="white" transform="translate(0 4)"/>
</clipPath>
</defs>
</svg>
