<svg width="280" height="176" viewBox="0 0 360 256" fill="none" xmlns="http://www.w3.org/2000/svg">
<g id="&#235;&#161;&#156;&#234;&#179;&#160;">
<g id="Group 2608524">
<path id="Vector" d="M259.571 164.086V126.286C259.571 118.884 253.395 112.577 245.585 112.537C241.68 112.521 238.132 114.018 235.569 116.437C233.035 118.85 231.455 122.184 231.455 125.863V156.604C231.455 160.243 228.343 163.188 224.51 163.188H144.931C137.121 163.188 130.468 169.042 130.426 176.445C130.408 180.146 131.988 183.509 134.54 185.939C137.085 188.34 140.603 189.838 144.484 189.838H232.409C247.409 189.838 259.571 178.31 259.571 164.092V164.086Z" fill="#7C43E8"/>
<path id="Vector_2" d="M259.571 164.086V126.286C259.571 118.884 253.395 112.577 245.585 112.537C241.68 112.521 238.132 114.018 235.569 116.437C233.035 118.85 231.455 122.184 231.455 125.863V156.604C231.455 160.243 228.343 163.188 224.51 163.188H144.931C137.121 163.188 130.468 169.042 130.426 176.445C130.408 180.146 131.988 183.509 134.54 185.939C137.085 188.34 140.603 189.838 144.484 189.838H232.409C247.409 189.838 259.571 178.31 259.571 164.092V164.086Z" fill="url(#paint0_linear_511_1103)"/>
<path id="Vector_3" d="M259.571 164.086V126.286C259.571 118.884 253.395 112.577 245.585 112.537C241.68 112.521 238.132 114.018 235.569 116.437C233.035 118.85 231.455 122.184 231.455 125.863V156.604C231.455 160.243 228.343 163.188 224.51 163.188H144.931C137.121 163.188 130.468 169.042 130.426 176.445C130.408 180.146 131.988 183.509 134.54 185.939C137.085 188.34 140.603 189.838 144.484 189.838H232.409C247.409 189.838 259.571 178.31 259.571 164.092V164.086Z" fill="url(#paint1_linear_511_1103)"/>
<path id="Union" fill-rule="evenodd" clip-rule="evenodd" d="M157.338 26.4165V84.249C157.338 91.6518 151.162 97.9584 143.352 97.9979C139.447 98.0149 135.899 96.5174 133.336 94.0987C130.802 91.6858 129.222 88.3517 129.222 84.6728V73.1955H45.9113C38.3755 73.1955 32.2646 67.4032 32.2646 60.2603C32.2646 56.6832 33.7909 53.4509 36.265 51.1113C38.7392 48.7662 42.1494 47.3195 45.9172 47.3195H129.222V33.8984C129.222 30.2592 126.11 27.315 122.276 27.315H46.7699C38.9599 27.315 32.3065 21.4605 32.2648 14.0577C32.2469 10.3563 33.8268 6.9939 36.3785 4.56396C38.9242 2.16793 42.4416 0.67041 46.3228 0.67041H130.182C145.182 0.67041 157.344 12.1985 157.344 26.4165H157.338ZM306.48 19.3976C303.898 11.1358 297.018 4.62021 288.284 2.19028C285.876 1.5178 283.336 1.16179 280.695 1.16179H210.649C208.008 1.16179 205.469 1.5178 203.06 2.19028C194.32 4.62587 187.44 11.1358 184.865 19.4089C184.149 21.7033 183.762 24.1332 183.762 26.6479V72.0312C183.762 74.546 184.149 76.9759 184.865 79.2702C187.44 87.5377 194.32 94.0533 203.06 96.4889C205.469 97.1613 208.008 97.5174 210.649 97.5174H280.695C283.336 97.5174 285.876 97.1613 288.284 96.4889C297.018 94.0533 303.898 87.5433 306.48 79.2815C307.195 76.9872 307.583 74.5516 307.583 72.0369V26.6422C307.583 24.1275 307.195 21.6919 306.48 19.3976ZM272.873 71.1327H218.459C214.662 71.1327 211.585 68.2112 211.585 64.6115V34.062C211.585 30.4623 214.662 27.5408 218.459 27.5408H272.873C276.671 27.5408 279.753 30.4623 279.753 34.062V64.6115C279.753 68.2112 276.671 71.1327 272.873 71.1327ZM293.279 189.832C301.524 189.832 308.208 183.498 308.208 175.682C308.208 167.867 301.524 161.532 293.279 161.532H293.178C284.879 161.532 277.808 167.754 277.772 175.609C277.749 179.542 279.43 183.113 282.142 185.69C284.843 188.244 288.581 189.832 292.701 189.832H293.279ZM157.338 176.078V137.51L157.344 137.504C157.344 123.286 145.182 111.758 130.182 111.758H46.3228C42.4416 111.758 38.9242 113.256 36.3785 115.657C33.8268 118.087 32.2469 121.45 32.2648 125.151C32.3065 132.554 38.9599 138.408 46.7699 138.408H122.276C126.11 138.408 129.222 141.352 129.222 144.992V176.502C129.222 180.181 130.802 183.515 133.336 185.928C135.899 188.346 139.447 189.844 143.352 189.827C151.162 189.787 157.338 183.481 157.338 176.078Z" fill="#7C43E8"/>
</g>
</g>
<defs>
<linearGradient id="paint0_linear_511_1103" x1="69.6688" y1="151.185" x2="255.74" y2="151.185" gradientUnits="userSpaceOnUse">
<stop offset="0.284288" stop-color="#5701F7"/>
<stop offset="0.808745" stop-color="white" stop-opacity="0"/>
</linearGradient>
<linearGradient id="paint1_linear_511_1103" x1="69.6688" y1="151.185" x2="287.653" y2="151.185" gradientUnits="userSpaceOnUse">
<stop offset="0.149216" stop-color="white"/>
<stop offset="0.793401" stop-color="white" stop-opacity="0"/>
</linearGradient>
</defs>
</svg>
