<svg width="136" height="52" viewBox="0 0 136 52" fill="none" xmlns="http://www.w3.org/2000/svg">
<path d="M89.3672 42.0858V33.0448C89.3672 31.2742 87.8899 29.7658 86.0219 29.7564C85.0879 29.7523 84.2395 30.1105 83.6263 30.689C83.0203 31.2661 82.6424 32.0636 82.6424 32.9435V40.2962C82.6424 41.1667 81.8981 41.8708 80.9812 41.8708H61.9476C60.0796 41.8708 58.4883 43.2711 58.4783 45.0417C58.474 45.927 58.8519 46.7312 59.4622 47.3124C60.0711 47.8869 60.9124 48.245 61.8407 48.245H82.8706C86.4582 48.245 89.3672 45.4878 89.3672 42.0871V42.0858Z" fill="#7C43E8"/>
<path d="M89.3672 42.0858V33.0448C89.3672 31.2742 87.8899 29.7658 86.0219 29.7564C85.0879 29.7523 84.2395 30.1105 83.6263 30.689C83.0203 31.2661 82.6424 32.0636 82.6424 32.9435V40.2962C82.6424 41.1667 81.8981 41.8708 80.9812 41.8708H61.9476C60.0796 41.8708 58.4883 43.2711 58.4783 45.0417C58.474 45.927 58.8519 46.7312 59.4622 47.3124C60.0711 47.8869 60.9124 48.245 61.8407 48.245H82.8706C86.4582 48.245 89.3672 45.4878 89.3672 42.0871V42.0858Z" fill="url(#paint0_linear_199_15)"/>
<path d="M89.3672 42.0858V33.0448C89.3672 31.2742 87.8899 29.7658 86.0219 29.7564C85.0879 29.7523 84.2395 30.1105 83.6263 30.689C83.0203 31.2661 82.6424 32.0636 82.6424 32.9435V40.2962C82.6424 41.1667 81.8981 41.8708 80.9812 41.8708H61.9476C60.0796 41.8708 58.4883 43.2711 58.4783 45.0417C58.474 45.927 58.8519 46.7312 59.4622 47.3124C60.0711 47.8869 60.9124 48.245 61.8407 48.245H82.8706C86.4582 48.245 89.3672 45.4878 89.3672 42.0871V42.0858Z" fill="url(#paint1_linear_199_15)"/>
<path fill-rule="evenodd" clip-rule="evenodd" d="M64.915 9.15793V22.9903C64.915 24.7609 63.4377 26.2693 61.5697 26.2787C60.6357 26.2828 59.7873 25.9246 59.1741 25.3461C58.5681 24.769 58.1902 23.9716 58.1902 23.0917V20.3465H38.2641C36.4617 20.3465 35.0001 18.9611 35.0001 17.2527C35.0001 16.3971 35.3651 15.624 35.9569 15.0644C36.5487 14.5035 37.3643 14.1575 38.2655 14.1575H58.1902V10.9475C58.1902 10.077 57.4459 9.37283 56.529 9.37283H38.4694C36.6014 9.37283 35.01 7.97257 35 6.20196C34.9958 5.31666 35.3736 4.51245 35.9839 3.93126C36.5928 3.35818 37.4341 3 38.3624 3H58.4198C62.0075 3 64.9164 5.75728 64.9164 9.15793H64.915ZM100.586 7.47912C99.969 5.50307 98.3235 3.94466 96.2345 3.36347C95.6584 3.20263 95.051 3.11748 94.4193 3.11748H77.6658C77.0341 3.11748 76.4267 3.20263 75.8506 3.36347C73.7602 3.94601 72.1146 5.50307 71.4986 7.48182C71.3275 8.03058 71.2348 8.61177 71.2348 9.21323V20.068C71.2348 20.6695 71.3275 21.2507 71.4986 21.7994C72.1146 23.7768 73.7602 25.3352 75.8506 25.9178C76.4267 26.0786 77.0341 26.1638 77.6658 26.1638H94.4193C95.051 26.1638 95.6584 26.0786 96.2345 25.9178C98.3235 25.3352 99.969 23.7782 100.586 21.8021C100.758 21.2534 100.85 20.6708 100.85 20.0694V9.21188C100.85 8.61041 100.758 8.02787 100.586 7.47912ZM92.5484 19.8531H79.5338C78.6255 19.8531 77.8897 19.1543 77.8897 18.2933V10.9865C77.8897 10.1256 78.6255 9.42679 79.5338 9.42679H92.5484C93.4567 9.42679 94.194 10.1256 94.194 10.9865V18.2933C94.194 19.1543 93.4567 19.8531 92.5484 19.8531ZM97.4295 48.2435C99.4015 48.2435 101 46.7284 101 44.8591C101 42.9898 99.4015 41.4747 97.4295 41.4747H97.4052C95.4203 41.4747 93.7291 42.9628 93.7206 44.8415C93.7149 45.7823 94.117 46.6365 94.7658 47.2528C95.4117 47.8637 96.3058 48.2435 97.2911 48.2435H97.4295ZM64.915 44.9538V35.7291L64.9165 35.7278C64.9165 32.3271 62.0075 29.5698 58.4198 29.5698H38.3625C37.4342 29.5698 36.5929 29.928 35.984 30.5025C35.3737 31.0836 34.9958 31.8879 35.0001 32.7732C35.0101 34.5438 36.6014 35.944 38.4694 35.944H56.529C57.4459 35.944 58.1903 36.6482 58.1903 37.5187V45.0552C58.1903 45.9351 58.5681 46.7326 59.1742 47.3097C59.7873 47.8882 60.6358 48.2464 61.5698 48.2423C63.4377 48.2329 64.915 46.7245 64.915 44.9538Z" fill="#7C43E8"/>
<defs>
<linearGradient id="paint0_linear_199_15" x1="43.9465" y1="39" x2="88.4508" y2="39" gradientUnits="userSpaceOnUse">
<stop offset="0.284288" stop-color="#5701F7"/>
<stop offset="0.808745" stop-color="white" stop-opacity="0"/>
</linearGradient>
<linearGradient id="paint1_linear_199_15" x1="43.9465" y1="39" x2="96.0839" y2="39" gradientUnits="userSpaceOnUse">
<stop offset="0.149216" stop-color="white"/>
<stop offset="0.793401" stop-color="white" stop-opacity="0"/>
</linearGradient>
</defs>
</svg>
