<svg width="66" height="46" viewBox="0 0 66 46" fill="none" xmlns="http://www.w3.org/2000/svg">
<path d="M54.3671 39.0858V30.0448C54.3671 28.2742 52.8898 26.7658 51.0219 26.7564C50.0879 26.7523 49.2394 27.1105 48.6263 27.689C48.0202 28.2661 47.6424 29.0636 47.6424 29.9435V37.2962C47.6424 38.1667 46.898 38.8708 45.9811 38.8708H26.9476C25.0796 38.8708 23.4883 40.2711 23.4783 42.0417C23.474 42.927 23.8519 43.7312 24.4622 44.3124C25.0711 44.8869 25.9124 45.245 26.8407 45.245H47.8705C51.4582 45.245 54.3671 42.4878 54.3671 39.0871V39.0858Z" fill="#7C43E8"/>
<path d="M54.3671 39.0858V30.0448C54.3671 28.2742 52.8898 26.7658 51.0219 26.7564C50.0879 26.7523 49.2394 27.1105 48.6263 27.689C48.0202 28.2661 47.6424 29.0636 47.6424 29.9435V37.2962C47.6424 38.1667 46.898 38.8708 45.9811 38.8708H26.9476C25.0796 38.8708 23.4883 40.2711 23.4783 42.0417C23.474 42.927 23.8519 43.7312 24.4622 44.3124C25.0711 44.8869 25.9124 45.245 26.8407 45.245H47.8705C51.4582 45.245 54.3671 42.4878 54.3671 39.0871V39.0858Z" fill="url(#paint0_linear_1845_64)"/>
<path d="M54.3671 39.0858V30.0448C54.3671 28.2742 52.8898 26.7658 51.0219 26.7564C50.0879 26.7523 49.2394 27.1105 48.6263 27.689C48.0202 28.2661 47.6424 29.0636 47.6424 29.9435V37.2962C47.6424 38.1667 46.898 38.8708 45.9811 38.8708H26.9476C25.0796 38.8708 23.4883 40.2711 23.4783 42.0417C23.474 42.927 23.8519 43.7312 24.4622 44.3124C25.0711 44.8869 25.9124 45.245 26.8407 45.245H47.8705C51.4582 45.245 54.3671 42.4878 54.3671 39.0871V39.0858Z" fill="url(#paint1_linear_1845_64)"/>
<path fill-rule="evenodd" clip-rule="evenodd" d="M29.915 6.15793V19.9903C29.915 21.7609 28.4377 23.2693 26.5697 23.2787C25.6357 23.2828 24.7873 22.9246 24.1741 22.3461C23.5681 21.769 23.1902 20.9716 23.1902 20.0917V17.3465H3.26408C1.46168 17.3465 8.63212e-05 15.9611 8.63212e-05 14.2527C8.63212e-05 13.3971 0.365129 12.624 0.956897 12.0644C1.54866 11.5035 2.36431 11.1575 3.2655 11.1575H23.1902V7.94746C23.1902 7.07702 22.4459 6.37283 21.529 6.37283H3.46936C1.60137 6.37283 0.0100176 4.97257 3.5941e-05 3.20196C-0.0042419 2.31666 0.373634 1.51245 0.983939 0.931258C1.59282 0.358176 2.43413 0 3.36242 0H23.4198C27.0075 0 29.9164 2.75728 29.9164 6.15793H29.915ZM65.5865 4.47912C64.969 2.50307 63.3235 0.944663 61.2345 0.363472C60.6584 0.20263 60.051 0.117479 59.4193 0.117479H42.6658C42.0341 0.117479 41.4267 0.20263 40.8506 0.363472C38.7602 0.946015 37.1146 2.50307 36.4986 4.48182C36.3275 5.03058 36.2348 5.61177 36.2348 6.21323V17.068C36.2348 17.6695 36.3275 18.2507 36.4986 18.7994C37.1146 20.7768 38.7602 22.3352 40.8506 22.9178C41.4267 23.0786 42.0341 23.1638 42.6658 23.1638H59.4193C60.051 23.1638 60.6584 23.0786 61.2345 22.9178C63.3235 22.3352 64.969 20.7782 65.5865 18.8021C65.7576 18.2534 65.8503 17.6708 65.8503 17.0694V6.21188C65.8503 5.61041 65.7576 5.02787 65.5865 4.47912ZM57.5484 16.8531H44.5338C43.6255 16.8531 42.8897 16.1543 42.8897 15.2933V7.98654C42.8897 7.12557 43.6255 6.42679 44.5338 6.42679H57.5484C58.4567 6.42679 59.194 7.12557 59.194 7.98654V15.2933C59.194 16.1543 58.4567 16.8531 57.5484 16.8531ZM62.4295 45.2435C64.4015 45.2435 66 43.7284 66 41.8591C66 39.9898 64.4015 38.4747 62.4295 38.4747H62.4052C60.4203 38.4747 58.7291 39.9628 58.7206 41.8415C58.7149 42.7823 59.117 43.6365 59.7658 44.2528C60.4117 44.8637 61.3058 45.2435 62.2911 45.2435H62.4295ZM29.915 41.9538V32.7291L29.9165 32.7278C29.9165 29.3271 27.0075 26.5698 23.4198 26.5698H3.36248C2.43418 26.5698 1.59288 26.928 0.983997 27.5025C0.373692 28.0836 -0.00418435 28.8879 9.34884e-05 29.7732C0.0100751 31.5438 1.60143 32.944 3.46942 32.944H21.529C22.4459 32.944 23.1903 33.6482 23.1903 34.5187V42.0552C23.1903 42.9351 23.5681 43.7326 24.1742 44.3097C24.7873 44.8882 25.6358 45.2464 26.5698 45.2423C28.4377 45.2329 29.915 43.7245 29.915 41.9538Z" fill="#7C43E8"/>
<defs>
<linearGradient id="paint0_linear_1845_64" x1="8.94642" y1="36" x2="53.4508" y2="36" gradientUnits="userSpaceOnUse">
<stop offset="0.284288" stop-color="#5701F7"/>
<stop offset="0.808745" stop-color="white" stop-opacity="0"/>
</linearGradient>
<linearGradient id="paint1_linear_1845_64" x1="8.94642" y1="36" x2="61.0838" y2="36" gradientUnits="userSpaceOnUse">
<stop offset="0.149216" stop-color="white"/>
<stop offset="0.793401" stop-color="white" stop-opacity="0"/>
</linearGradient>
</defs>
</svg>
