<svg width="120" height="120" viewBox="0 0 153 153" fill="none" xmlns="http://www.w3.org/2000/svg">
<g clip-path="url(#clip0_1839_3236)">
<path d="M123.644 0H29.3557C13.143 0 0 13.143 0 29.3557V123.644C0 139.857 13.143 153 29.3557 153H123.644C139.857 153 153 139.857 153 123.644V29.3557C153 13.143 139.857 0 123.644 0Z" fill="white"/>
<path d="M134.805 76.4998C134.805 44.2986 108.701 18.1943 76.4998 18.1943C44.2986 18.1943 18.1943 44.2986 18.1943 76.4998C18.1943 108.701 44.2986 134.805 76.4998 134.805C108.701 134.805 134.805 108.701 134.805 76.4998Z" fill="#722FF0"/>
<path d="M118.522 68.8147L68.3263 119.01C65.9864 121.35 62.1869 121.35 59.847 119.01L50.5286 109.692C49.8535 109.017 49.8854 107.931 50.5286 107.288C50.6152 107.201 50.711 107.119 50.825 107.051L51.5275 106.609C53.4614 105.368 53.7807 102.672 52.1432 101.035C50.5058 99.3973 47.8101 99.7166 46.5695 101.651L46.127 102.353C46.054 102.467 45.9765 102.563 45.8898 102.649C45.2467 103.293 44.1566 103.324 43.4861 102.649L34.1676 93.331C31.8277 90.9911 31.8277 87.1916 34.1676 84.8517L84.3633 34.656C86.7032 32.3162 90.4936 32.3207 92.8289 34.656L102.156 43.9836C102.832 44.6587 102.8 45.7442 102.156 46.3874C102.07 46.474 101.974 46.5561 101.86 46.6245L101.158 47.067C99.2236 48.3076 98.9044 51.0033 100.542 52.6407C102.179 54.2782 104.875 53.9589 106.116 52.025L106.558 51.3226C106.631 51.2085 106.709 51.1127 106.795 51.0261C107.438 50.383 108.528 50.351 109.199 51.0261L118.527 60.3537C120.862 62.689 120.866 66.4748 118.527 68.8192L118.522 68.8147Z" fill="white"/>
<path d="M59.9431 81.6863C59.2635 80.9702 58.78 80.1994 58.4926 79.3692C58.2053 78.5391 58.1141 77.7044 58.219 76.856C58.3239 76.0122 58.6021 75.173 59.0537 74.3337C59.5052 73.499 60.1347 72.7008 60.9329 71.9391C61.6626 71.2458 62.4563 70.7121 63.3047 70.3427C64.153 69.9732 65.0014 69.7771 65.8498 69.7452C66.6982 69.7178 67.5192 69.8683 68.3174 70.1922C69.1156 70.5206 69.8363 71.0223 70.484 71.7065C71.1818 72.4408 71.6744 73.2253 71.9709 74.06C72.2628 74.8993 72.3768 75.7477 72.3039 76.6097C72.2309 77.4718 71.9755 78.3247 71.5285 79.1686C71.0815 80.0124 70.4703 80.806 69.6858 81.5495C68.103 83.0547 66.4336 83.8209 64.6821 83.8529C62.9307 83.8848 61.3479 83.1596 59.9385 81.6772L59.9431 81.6863ZM62.99 78.6987C63.5555 79.3419 64.2762 79.6931 65.1519 79.7524C65.9821 79.8071 66.7119 79.5334 67.3413 78.9359C67.6287 78.6623 67.8522 78.3384 68.0027 77.969C68.1532 77.5995 68.2353 77.2255 68.2444 76.8424C68.2535 76.4592 68.1943 76.0806 68.062 75.7021C67.9297 75.3235 67.729 74.9905 67.4508 74.7032C67.1589 74.3976 66.8305 74.1695 66.461 74.019C66.0916 73.8685 65.713 73.7909 65.3207 73.7909C64.9285 73.7909 64.5499 73.8593 64.1804 74.0007C63.811 74.1421 63.4917 74.3428 63.218 74.5983C62.6479 75.141 62.3377 75.8207 62.2967 76.6371C62.2556 77.3806 62.5019 78.1423 62.9945 78.7033L62.99 78.6987ZM74.4203 59.519C75.556 58.4426 77.4306 59.1632 77.5538 60.7186L79.8572 90.0424C79.9028 90.6034 79.6884 91.1599 79.2779 91.5476C78.133 92.6331 76.2402 91.9079 76.117 90.3343L73.8455 61.006C73.8045 60.4495 74.0143 59.9022 74.4157 59.5145L74.4203 59.519ZM83.0819 79.2324C82.4023 78.5163 81.9234 77.75 81.6452 76.929C81.3669 76.108 81.2711 75.2733 81.3578 74.4295C81.4445 73.5857 81.7227 72.7419 82.1834 71.898C82.644 71.0542 83.2735 70.2515 84.0763 69.4897C84.879 68.728 85.6499 68.2126 86.4982 67.8432C87.3466 67.4737 88.195 67.2821 89.0434 67.273C89.8918 67.2639 90.7128 67.419 91.511 67.7474C92.3092 68.0758 93.0207 68.5729 93.6547 69.2343C94.3343 69.9504 94.8269 70.7213 95.128 71.5514C95.429 72.3815 95.5476 73.2299 95.4746 74.0874C95.4017 74.9495 95.1462 75.807 94.7129 76.6599C94.275 77.5128 93.6593 78.3202 92.8565 79.0819C92.0537 79.8436 91.2555 80.3909 90.4072 80.7786C89.5588 81.1663 88.7059 81.367 87.8484 81.3853C86.9909 81.4035 86.1562 81.2348 85.3443 80.8744C84.5324 80.5141 83.7752 79.9668 83.0819 79.237V79.2324ZM86.2474 76.3224C86.8312 76.9336 87.5336 77.2574 88.3546 77.2848C89.1757 77.3122 89.8918 77.0385 90.5075 76.4546C91.1233 75.8708 91.4106 75.1912 91.4334 74.3611C91.4562 73.5309 91.1826 72.8194 90.617 72.2219C90.3251 71.9163 89.9967 71.6882 89.6272 71.5377C89.2577 71.3872 88.8792 71.3096 88.4869 71.3096C88.0947 71.3096 87.7161 71.3781 87.3466 71.5195C86.9772 71.6609 86.6579 71.8615 86.3842 72.117C85.8232 72.6506 85.513 73.3348 85.4583 74.1604C85.4036 74.9905 85.6681 75.7112 86.2519 76.3224H86.2474Z" fill="#722FF0"/>
</g>
<defs>
<clipPath id="clip0_1839_3236">
<rect width="153" height="153" fill="white"/>
</clipPath>
</defs>
</svg>
